<svg xmlns="http://www.w3.org/2000/svg" data-name="Layer 1 copy 4" viewBox="0 0 100 100" id="rocket"><path fill="#ff0c00" d="M49.73 56.19c-6.82 7-6.37 19.2 0 29.76 6.36-10.56 6.81-22.72 0-29.76Z" class="colorff0000 svgShape"></path><path fill="#ff6d66" d="M49.61 56.19c-5.17 4.76-4.82 14.86 0 22 4.83-7.14 5.17-17.19 0-22Z" class="colorff5b00 svgShape"></path><path fill="#fff000" d="M49.78 56.19c-2.74 3-2.56 10.59 0 15 2.56-4.41 2.74-12.04 0-15Z" class="colorffe000 svgShape"></path><path fill="#fdf687" stroke="#000000" stroke-miterlimit="10" d="M50 14.05C34.9 32.72 39.93 58.19 39.93 58.19s7.55-.54 10.06-.54 10.06.54 10.06.54S65.08 32.72 50 14.05Z" class="colorcccccc svgShape colorStroke000000 svgStroke"></path><path fill="#7b7d7e" stroke="#000000" stroke-miterlimit="10" d="M40.94 56.21s-3.47-.46-8.67 5.79a.54.54 0 0 1-1-.38c1.11-12.76 8.81-16.22 8.81-16.22Z" class="color999999 svgShape colorStroke000000 svgStroke"></path><circle cx="49.99" cy="33.97" r="5.48" fill="#3fb8f5" stroke="#000000" stroke-miterlimit="10" stroke-width=".54" class="color3fa9f5 svgShape colorStroke000000 svgStroke"></circle><path fill="#ed261c" stroke="#000000" stroke-miterlimit="10" d="M55.48 22.73A55.49 55.49 0 0 0 50 14.05a44.8 44.8 0 0 0-5.48 8.68s4.11-.53 5.48-.53 5.48.53 5.48.53Z" class="colored1c24 svgShape colorStroke000000 svgStroke"></path><path fill="#1a1a1a" stroke="#000000" stroke-miterlimit="10" d="M60.05 58.19s-7.54-.54-10.06-.54-10.06.54-10.06.54l1.15 2.74a1.08 1.08 0 0 0 1.09.66c1.76-.17 6-.55 7.82-.57s6.26.29 8.09.42a1.06 1.06 0 0 0 1.09-.72Z" class="color1a1a1a svgShape colorStroke000000 svgStroke"></path><path fill="#7b7d7e" stroke="#000000" stroke-miterlimit="10" d="M59.06 56.21s3.47-.46 8.67 5.79a.54.54 0 0 0 1-.38c-1.16-12.76-8.86-16.22-8.86-16.22Z" class="color999999 svgShape colorStroke000000 svgStroke"></path><path fill="#ffffff" d="M54.64 33.85c0 2.6-2.11.79-4.7.79s-4.7 1.81-4.7-.79a4.7 4.7 0 1 1 9.4 0Z" opacity=".38" class="colorffffff svgShape"></path><ellipse cx="52.17" cy="30.77" fill="#ffffff" rx=".35" ry=".55" transform="rotate(-62.58 52.178 30.777)" class="colorffffff svgShape"></ellipse><path fill="#1a1a1a" d="m55.47 22.73-.15-.27a45.09 45.09 0 0 0-4.49-7.31l-.7-.91c2.28 8.88 7.37 31.64 4.12 46.95l3.82.25a1.06 1.06 0 0 0 1.09-.72l.88-2.53s3.65-18.45-4.57-35.46Z" opacity=".19" class="color1a1a1a svgShape"></path></svg>